<mxfile host="app.diagrams.net" modified="2023-12-25T12:01:21.484Z" agent="Mozilla/5.0 (X11; Linux x86_64; rv:121.0) Gecko/20100101 Firefox/121.0" version="22.1.11" etag="d1awmQ654fsSgLWsev95" type="github">
  <diagram name="Page-1" id="wqFKdrsjX86GZuFU5oRi">
    <mxGraphModel>
      <root>
        <mxCell id="0" />
        <mxCell id="1" parent="0" />
      </root>
    </mxGraphModel>
  </diagram>
</mxfile>
